<?xml version="1.0" standalone="no"?><!DOCTYPE svg PUBLIC "-//W3C//DTD SVG 1.1//EN" "http://www.w3.org/Graphics/SVG/1.1/DTD/svg11.dtd"><svg t="1722656254030" class="icon" viewBox="0 0 1024 1024" version="1.1" xmlns="http://www.w3.org/2000/svg" p-id="6336" xmlns:xlink="http://www.w3.org/1999/xlink" width="200" height="200"><path d="M864 192H576.992a64 64 0 0 0-128 0H160a32 32 0 1 0 0 64h704a32 32 0 1 0 0-64zM416 736V352a32 32 0 0 0-64 0v384a32 32 0 0 0 64 0zM672 736V352a32 32 0 0 0-64 0v384a32 32 0 0 0 64 0zM544 736V352a32 32 0 0 0-64 0v384a32 32 0 0 0 64 0z" fill="#231815" p-id="6337"></path><path d="M768 320a32 32 0 0 0-32 32v455.104c0 13.728-10.768 24.896-24 24.896h-400c-13.232 0-24-11.168-24-24.896V352a32 32 0 1 0-64 0v455.104C224 856.128 263.472 896 312 896h400c48.512 0 88-39.872 88-88.896V352a32 32 0 0 0-32-32z" fill="#231815" p-id="6338"></path></svg>