<?xml version="1.0" standalone="no"?><!DOCTYPE svg PUBLIC "-//W3C//DTD SVG 1.1//EN" "http://www.w3.org/Graphics/SVG/1.1/DTD/svg11.dtd"><svg t="1725206422763" class="icon" viewBox="0 0 1024 1024" version="1.1" xmlns="http://www.w3.org/2000/svg" p-id="4254" xmlns:xlink="http://www.w3.org/1999/xlink" width="200" height="200"><path d="M513.044898 929.959184c-27.167347 0-52.244898-12.538776-68.963265-33.959184-84.636735-110.759184-227.265306-324.440816-227.265306-506.77551C216.816327 226.220408 349.518367 94.040816 512 94.040816s295.183673 132.179592 295.183673 295.183674c0 182.334694-141.061224 396.016327-225.17551 506.77551-16.718367 21.420408-41.795918 33.959184-68.963265 33.959184zM512 135.836735c-139.493878 0-253.387755 113.371429-253.387755 253.387755 0 170.318367 136.881633 375.118367 218.383673 481.697959 8.359184 10.971429 21.420408 17.763265 35.526531 17.763265s27.167347-6.269388 35.526531-17.763265c80.979592-106.579592 216.293878-311.379592 216.293877-481.697959C765.387755 249.208163 651.493878 135.836735 512 135.836735z" fill="#333333" p-id="4255"></path><path d="M512 525.061224c-72.097959 0-130.612245-58.514286-130.612245-130.612244s58.514286-130.612245 130.612245-130.612245 130.612245 58.514286 130.612245 130.612245-58.514286 130.612245-130.612245 130.612244z m0-219.428571c-49.110204 0-88.816327 39.706122-88.816327 88.816327s39.706122 88.816327 88.816327 88.816326 88.816327-39.706122 88.816327-88.816326-39.706122-88.816327-88.816327-88.816327z" fill="#333333" p-id="4256"></path></svg>