<?xml version="1.0" standalone="no"?><!DOCTYPE svg PUBLIC "-//W3C//DTD SVG 1.1//EN" "http://www.w3.org/Graphics/SVG/1.1/DTD/svg11.dtd"><svg t="1722926736447" class="icon" viewBox="0 0 1024 1024" version="1.1" xmlns="http://www.w3.org/2000/svg" p-id="6070" xmlns:xlink="http://www.w3.org/1999/xlink" width="200" height="200"><path d="M540.444444 634.993778a110.933333 110.933333 0 0 0-26.737777-76.003556c33.450667-31.857778 26.737778-91.022222 26.737777-137.216 0-73.500444-25.6-112.526222-103.879111-99.441778-81.692444 13.539556-163.498667 28.330667-244.508444 42.780445-62.691556 11.377778-123.107556 22.186667-126.407111 96.711111 0 35.84 0 72.590222 21.276444 93.411556-40.277333 52.679111-21.276444 163.953778-21.276444 216.860444 0 55.751111-6.940444 116.508444 1.137778 171.690667 7.054222 47.331556 37.774222 62.805333 82.261333 65.080889 97.393778 5.006222 196.835556 2.048 294.229333 0 112.981333-2.048 97.166222-102.4 97.166222-188.188445 0-61.667556 1.706667-123.790222 0-185.685333zM443.733333 966.428444c-45.511111 4.892444-93.297778 0-138.581333 0H177.607111c-22.755556 0-53.475556 6.030222-66.446222-18.432C102.4 932.977778 108.316444 894.293333 108.316444 876.999111v-170.666667c0-29.468444-11.377778-111.160889 18.773334-131.868444h337.351111a26.510222 26.510222 0 0 0 3.868444 2.275556c41.301333 16.725333 29.468444 89.201778 29.468445 124.472888v156.103112c0 49.152 8.760889 102.286222-54.044445 109.112888z m33.223111-433.720888H138.467556a22.755556 22.755556 0 0 0-9.557334-3.072c-25.713778-2.275556-20.593778-49.265778-20.593778-67.584 2.275556-51.086222 72.135111-51.541333 111.843556-58.481778l150.072889-26.055111c44.032-7.736889 125.155556-39.822222 127.544889 25.486222 1.479111 33.450667 11.832889 109.795556-21.276445 129.706667z" fill="#040000" p-id="6071"></path><path d="M385.137778 656.839111H216.177778a21.390222 21.390222 0 0 0 0 42.666667h169.528889a21.390222 21.390222 0 0 0-0.568889-42.666667zM940.600889 23.893333H443.733333a21.617778 21.617778 0 0 0-20.593777 26.965334q14.904889 85.902222 29.582222 171.576889c4.664889 27.079111 45.511111 15.587556 41.187555-11.377778q-12.401778-72.248889-25.031111-144.497778h448.056889c-12.288 112.981333-28.672 226.531556-34.133333 340.081778L864.711111 835.697778H603.022222a21.390222 21.390222 0 0 0 0 42.666666h198.769778V955.733333h-169.528889a21.390222 21.390222 0 0 0 0 42.666667h190.805333a21.617778 21.617778 0 0 0 21.390223-21.276444V878.364444h40.96a21.731556 21.731556 0 0 0 21.276444-21.276444q9.784889-225.28 19.342222-450.446222c5.12-120.604444 23.438222-241.322667 35.84-361.472a21.504 21.504 0 0 0-21.276444-21.276445z" fill="#040000" p-id="6072"></path><path d="M611.669333 286.378667l51.2-51.655111 38.912 39.025777a21.731556 21.731556 0 0 0 30.264889 0L807.822222 196.152889c19.228444-19.683556-11.377778-49.948444-30.151111-30.151111L716.8 228.238222l-38.798222-38.798222a21.731556 21.731556 0 0 0-30.151111 0l-66.446223 66.787556a21.390222 21.390222 0 0 0 30.264889 30.151111z" fill="#040000" p-id="6073"></path></svg>