<?xml version="1.0" standalone="no"?><!DOCTYPE svg PUBLIC "-//W3C//DTD SVG 1.1//EN" "http://www.w3.org/Graphics/SVG/1.1/DTD/svg11.dtd"><svg t="1725536810075" class="icon" viewBox="0 0 1024 1024" version="1.1" xmlns="http://www.w3.org/2000/svg" p-id="44766" xmlns:xlink="http://www.w3.org/1999/xlink" width="200" height="200"><path d="M519.876923 441.147077l157.538462-157.538462c15.753846-19.692308 43.323077-19.692308 63.015384-3.938461s19.692308 43.323077 3.938462 63.015384l-3.938462 3.938462-157.538461 157.538462c15.753846 47.261538-11.815385 98.461538-59.076923 110.276923-47.261538 15.753846-98.461538-11.815385-110.276923-59.076923-15.753846-47.261538 11.815385-98.461538 59.076923-114.215385 15.753846-3.938462 31.507692-3.938462 47.261538 0z" fill="#35ECD3" p-id="44767"></path><path d="M937.353846 756.224h-271.753846c-23.630769 0-47.261538-19.692308-47.261538-43.323077 0-23.630769 19.692308-47.261538 47.261538-47.261538h271.753846c23.630769 0 47.261538 19.692308 47.261539 47.261538 0 23.630769-19.692308 43.323077-47.261539 43.323077z m0 224.492308h-90.584615c-23.630769 0-43.323077-19.692308-43.323077-43.323077 0-23.630769 19.692308-47.261538 43.323077-47.261539h90.584615c23.630769 0 47.261538 19.692308 47.261539 47.261539 0 23.630769-19.692308 43.323077-47.261539 43.323077z m-271.753846 0H248.123077c-86.646154 7.876923-161.476923-59.076923-169.353846-145.723077-7.876923-86.646154 59.076923-161.476923 145.723077-169.353846H397.784615c23.630769 0 47.261538 19.692308 47.261539 47.261538 0 23.630769-19.692308 43.323077-47.261539 43.323077H248.123077c-39.384615-3.938462-70.892308 23.630769-74.830769 59.076923-3.938462 39.384615 23.630769 70.892308 59.076923 74.830769h433.230769c23.630769 0 47.261538 19.692308 47.261538 47.261539 0 23.630769-19.692308 43.323077-47.261538 43.323077z m-354.461538-736.492308l15.753846 15.753846c15.753846 19.692308 15.753846 47.261538 0 63.015385-15.753846 15.753846-43.323077 15.753846-63.015385 0l-15.753846-15.753846c-39.384615 51.2-63.015385 110.276923-70.892308 177.230769h43.323077c23.630769 0 47.261538 19.692308 47.261539 47.261538 0 23.630769-19.692308 47.261538-47.261539 47.261539H126.030769c-23.630769 0-43.323077-19.692308-43.323077-43.323077 0-256 200.861538-456.861538 448.984616-456.861539 248.123077 0 452.923077 200.861538 452.923077 452.923077 0 23.630769-19.692308 43.323077-43.323077 43.323077h-90.584616c-23.630769 0-43.323077-19.692308-43.323077-47.261538 0-23.630769 19.692308-47.261538 43.323077-47.261539h43.323077c-19.692308-165.415385-149.661538-291.446154-311.138461-315.076923v43.323077c0 23.630769-19.692308 43.323077-47.261539 43.323077-23.630769 0-43.323077-19.692308-43.323077-43.323077v-39.384615c-70.892308 11.815385-129.969231 35.446154-181.16923 74.830769z" fill="#00A0FF" p-id="44768"></path></svg>