<?xml version="1.0" standalone="no"?><!DOCTYPE svg PUBLIC "-//W3C//DTD SVG 1.1//EN" "http://www.w3.org/Graphics/SVG/1.1/DTD/svg11.dtd"><svg t="1722657647278" class="icon" viewBox="0 0 1024 1024" version="1.1" xmlns="http://www.w3.org/2000/svg" p-id="3845" xmlns:xlink="http://www.w3.org/1999/xlink" width="200" height="200"><path d="M278.016 942.592c-26.624 0-47.616-23.04-47.616-51.2 0-18.944 15.872-44.544 47.616-76.288 31.744 32.256 47.616 57.856 47.616 76.288 0 28.16-21.504 51.2-47.616 51.2zM437.248 942.592c-26.624 0-47.616-23.04-47.616-51.2 0-18.944 15.872-44.544 47.616-76.288 31.744 32.256 47.616 57.856 47.616 76.288 0.512 28.16-20.992 51.2-47.616 51.2zM596.992 942.592c-26.624 0-47.616-23.04-47.616-51.2 0-18.944 15.872-44.544 47.616-76.288 31.744 32.256 47.616 57.856 47.616 76.288 0 28.16-21.504 51.2-47.616 51.2zM756.224 942.592c-26.624 0-47.616-23.04-47.616-51.2 0-18.944 15.872-44.544 47.616-76.288 31.744 32.256 47.616 57.856 47.616 76.288 0.512 28.16-20.992 51.2-47.616 51.2zM656.896 754.688H350.72c-122.88 0-222.72-99.84-222.72-222.72 0-88.576 54.272-169.472 134.656-204.8C267.264 196.608 374.784 92.16 506.368 92.16c110.592 0 206.848 74.752 235.52 180.736 1.024 0.512 2.048 1.024 3.072 1.024 0.512 0 1.024 0.512 2.048 0.512 4.096 1.536 7.68 3.072 10.752 4.608l2.048 1.024c1.536 0.512 3.072 1.536 4.608 2.048 0.512 0 1.024 0.512 1.024 0.512l2.048 1.024c4.608 2.048 8.704 4.608 12.288 6.656l2.56 1.536c0.512 0.512 1.536 1.024 2.048 1.024 49.152 29.696 87.04 75.264 105.984 129.536 0.512 1.536 1.536 3.072 2.048 4.608 2.048 5.12 3.072 10.24 4.608 14.848l0.512 2.048c0 0.512 0 1.024 0.512 1.536 0.512 1.024 0.512 2.048 1.024 3.584 1.024 3.584 1.536 7.168 2.048 9.728 0 1.024 0.512 2.048 0.512 2.56 1.024 5.12 1.536 9.216 2.048 13.312l1.536 10.24c0.512 7.168 1.024 14.336 1.024 21.504-0.512 136.704-112.128 248.32-249.344 248.32zM505.856 148.48c-103.424 0-187.392 83.968-187.392 187.392v6.656l3.072 23.04-22.016 7.168c-68.096 22.528-115.712 87.552-115.712 159.232 0 91.648 74.752 166.4 166.4 166.4h306.688c105.984 0 192-86.016 192-192 0-5.12-0.512-11.264-0.512-16.896l-1.024-8.192c-0.512-3.584-0.512-5.632-1.024-7.68-0.512-1.536-0.512-3.072-1.024-4.608 0-1.536-0.512-3.072-1.024-3.584l-1.024-3.584c0-0.512 0-1.024-0.512-1.536-0.512-1.536-0.512-2.56-1.024-4.096 0-0.512-0.512-1.024-0.512-1.536l-3.584-9.728c-14.848-43.008-44.032-79.36-83.456-102.912l-1.536-1.024c-0.512-0.512-1.024-0.512-1.536-1.024-3.072-1.536-5.632-3.072-8.704-4.608-1.024-0.512-2.56-1.024-4.096-2.048-0.512 0-1.024-0.512-1.024-0.512l-3.584-1.536c-2.048-1.024-4.096-2.048-5.12-2.048-2.048-0.512-3.584-1.536-5.632-2.048-0.512 0-1.024-0.512-2.048-0.512l-8.192-2.56h-18.432l-4.608-22.528C672.768 212.48 595.456 148.48 505.856 148.48z" fill="#515151" p-id="3846"></path></svg>