<?xml version="1.0" standalone="no"?><!DOCTYPE svg PUBLIC "-//W3C//DTD SVG 1.1//EN" "http://www.w3.org/Graphics/SVG/1.1/DTD/svg11.dtd"><svg t="1725536471948" class="icon" viewBox="0 0 1024 1024" version="1.1" xmlns="http://www.w3.org/2000/svg" p-id="38651" xmlns:xlink="http://www.w3.org/1999/xlink" width="200" height="200"><path d="M771.5 893.488c-126.55 0-229.139-102.589-229.139-229.139 0-182.552 160.295-347.255 212.732-396.252 0.153 0.153 0.323 0.29 0.482 0.44a22.305 22.305 0 0 1 32.67-0.327c52.777 48.747 212.394 211.441 212.394 396.14 0.002 126.549-102.588 229.138-229.139 229.138z m15.749-533.043c-0.023 0.023-0.049 0.04-0.073 0.062a18.97 18.97 0 0 0-30.231 0c-0.167-0.155-0.348-0.3-0.511-0.454C716.1 404.634 608.716 535.392 608.716 663.7c0 89.78 72.882 162.561 162.791 162.561S934.293 753.479 934.293 663.7c0-130.882-106.206-258.874-147.042-303.255z m6.068 411h-4.475a123.072 123.072 0 0 1-118.081-157.757h0.527a33.006 33.006 0 0 1 63.852 11.746c0 3.048-2.238 10.166-2.238 22.937a55.942 55.942 0 0 0 55.942 55.942c1.508 0 3-0.077 4.475-0.195v0.195a33.566 33.566 0 1 1 0 67.131z m-400.546 48.11a156.987 156.987 0 0 0 32.424-3.389l0.022 0.2a33.547 33.547 0 0 1 7.831 66.626v0.066a225.064 225.064 0 0 1-40.278 3.627c-123.58 0.001-223.77-100.184-223.77-223.767a224.327 224.327 0 0 1 5.846-50.939 33.545 33.545 0 1 1 66.375 9.542h0.448a156.723 156.723 0 0 0 151.1 198.035z m193.56-495.647a33.509 33.509 0 0 1-28.291-15.552c-0.135 0.176-0.286 0.336-0.412 0.521-57.459-84.822-119.023-147.1-147.974-175.061-0.157 0.18-0.336-0.778-0.5-0.6a20.1 20.1 0 0 0-32.773 0c-0.1-0.106-0.209-0.2-0.307-0.311-61.813 61.067-274.2 288.456-274.2 530.014 0 160.659 130.24 290.9 290.9 290.9a289.532 289.532 0 0 0 165.141-51.413 33.534 33.534 0 1 1 43.5 50.966c0.078 0.1 0.147 0.216 0.224 0.319a356.314 356.314 0 0 1-208.866 67.259c-197.734 0-358.029-160.295-358.029-358.029 0-296.428 270.536-562.778 341.266-627.35 0.09 0.087 0.19 0.162 0.279 0.248a22.3 22.3 0 0 1 31.842-1.151l0.3-0.3c35.475 31.852 125.028 117.3 203.648 233.889l-0.246 0.3a33.54 33.54 0 0 1-25.5 55.361z" fill="#00A7FF" p-id="38652"></path></svg>