<?xml version="1.0" standalone="no"?><!DOCTYPE svg PUBLIC "-//W3C//DTD SVG 1.1//EN" "http://www.w3.org/Graphics/SVG/1.1/DTD/svg11.dtd"><svg t="1725536669723" class="icon" viewBox="0 0 1024 1024" version="1.1" xmlns="http://www.w3.org/2000/svg" p-id="42415" xmlns:xlink="http://www.w3.org/1999/xlink" width="200" height="200"><path d="M396.36994 810.485106a23.346741 23.346741 0 0 0-12.831534-12.820067 22.291781 22.291781 0 0 0-17.315117 0.194939c-11.558701 4.999597-17.051377 19.000761-12.235252 31.258947a177.164614 177.164614 0 0 0 49.973034 68.411915A167.910773 167.910773 0 0 0 480.457197 933.594446a0.791221 0.791221 0 0 0 0.229339 0h0.550414a32.841389 32.841389 0 0 0 3.359821 0.229339 23.025666 23.025666 0 0 0 22.589922-19.493841c2.201657-12.888869-6.134826-25.227324-18.587951-27.520717-41.33841-7.591131-75.796641-36.155342-92.228802-76.324121z" fill="#f4ea2a" p-id="42416"></path><path d="M669.879996 547.627861l-2.94701-2.350728v-384.946024C666.932986 71.920806 597.420243 0 511.968417 0S356.877712 71.920806 356.877712 160.331109v384.946024l-2.94701 2.350728C291.710948 597.669698 254.557981 676.229877 254.557981 757.794401c0 71.095185 26.740963 137.99346 75.315028 188.230235s113.385353 77.975364 182.095408 77.975364 133.521344-27.681254 182.118343-77.975364S769.424722 828.79785 769.424722 757.794401c0-81.598925-37.233236-160.159104-99.544726-210.16654z m-54.67449-340.568869h-79.431669c-13.267279 0-24.080627 11.122956-24.080627 24.791579s10.790414 24.780112 24.080627 24.780112h79.431669V294.701008H493.346066c-13.267279 0-24.080627 11.122956-24.080627 24.791579s10.790414 24.780112 24.080627 24.780112h121.85944v44.721164h-83.708847c-13.255812 0-24.080627 11.111489-24.080627 24.780112s10.790414 24.791579 24.080627 24.791579h83.708847V558.441209a31.843763 31.843763 0 0 0 13.083807 25.720404c55.947324 40.134378 89.350594 106.092363 89.350594 176.327525 0 118.109742-92.882419 214.191445-206.95579 214.191444S303.579257 878.507144 303.453121 760.3286c0-70.235162 33.40327-136.147279 89.350593-176.316058A31.591489 31.591489 0 0 0 405.921922 558.280672V162.739171c0-59.742889 46.945756-108.351355 104.647526-108.351355s104.658992 48.608466 104.658992 108.351355z" fill="#f4ea2a" p-id="42417"></path></svg>