<?xml version="1.0" standalone="no"?><!DOCTYPE svg PUBLIC "-//W3C//DTD SVG 1.1//EN" "http://www.w3.org/Graphics/SVG/1.1/DTD/svg11.dtd"><svg t="1725197196988" class="icon" viewBox="0 0 1267 1024" version="1.1" xmlns="http://www.w3.org/2000/svg" p-id="11314" xmlns:xlink="http://www.w3.org/1999/xlink" width="247.4609375" height="200"><path d="M888.685714 271.36a274.041905 274.041905 0 0 0-526.384762 86.308571c-6.339048 0-14.872381-1.950476-23.161904-1.950476a168.472381 168.472381 0 1 0 0 336.700953h547.352381A211.139048 211.139048 0 0 0 1097.142857 482.011429a207.969524 207.969524 0 0 0-208.457143-210.651429z" fill="#B0DFFF" p-id="11315"></path><path d="M413.013333 763.855238s-104.594286 78.019048-88.990476 121.904762 83.626667 50.224762 111.420953 7.801905-22.430476-129.706667-22.430477-129.706667zM663.893333 763.855238s-104.594286 78.019048-88.990476 121.904762 83.626667 50.224762 111.420953 7.801905-22.430476-129.706667-22.430477-129.706667zM914.773333 763.855238s-104.838095 78.019048-88.990476 121.904762 83.626667 50.224762 111.177143 7.801905-22.186667-129.706667-22.186667-129.706667z" fill="#1D8AED" p-id="11316"></path></svg>